<svg width="1841" height="719" viewBox="0 0 1841 719" fill="none" xmlns="http://www.w3.org/2000/svg">
<mask id="path-1-inside-1_5_120" fill="white">
<path d="M1840.02 0L1839.93 0.129883C1839.96 0.699057 1839.99 1.26892 1840.02 1.83887V0ZM1839.63 360.886H1840.02V45.2793C1831.63 215.414 1725.38 351.273 1593.02 360.385H0V468.13C0 606.201 111.929 718.13 250 718.13H1839.63V360.886Z"/>
</mask>
<path d="M1840.02 0L1839.93 0.129883C1839.96 0.699057 1839.99 1.26892 1840.02 1.83887V0ZM1839.63 360.886H1840.02V45.2793C1831.63 215.414 1725.38 351.273 1593.02 360.385H0V468.13C0 606.201 111.929 718.13 250 718.13H1839.63V360.886Z" fill="#424B54"/>
<path d="M1840.02 0L1839.19 -0.560425L1841.02 -3.26208V0H1840.02ZM1839.93 0.129883L1838.93 0.183044L1838.91 -0.152344L1839.1 -0.430542L1839.93 0.129883ZM1840.02 1.83887H1841.02L1839.02 1.88812L1840.02 1.83887ZM1839.63 360.886H1838.63V359.886H1839.63V360.886ZM1840.02 360.886H1841.02V361.886H1840.02V360.886ZM1840.02 45.2793L1839.02 45.23L1841.02 45.2793H1840.02ZM1593.02 360.385L1593.09 361.382L1593.06 361.385H1593.02V360.385ZM0 360.385H-1V359.385H0V360.385ZM1839.63 718.13H1840.63V719.13H1839.63V718.13ZM1840.02 0L1840.85 0.560425L1840.76 0.690308L1839.93 0.129883L1839.1 -0.430542L1839.19 -0.560425L1840.02 0ZM1839.93 0.129883L1840.93 0.0767212C1840.96 0.646851 1840.99 1.21808 1841.02 1.78961L1840.02 1.83887L1839.02 1.88812C1838.99 1.31976 1838.96 0.751221 1838.93 0.183044L1839.93 0.129883ZM1840.02 1.83887H1839.02V0H1840.02H1841.02V1.83887H1840.02ZM1839.63 360.886V359.886H1840.02V360.886V361.886H1839.63V360.886ZM1840.02 360.886H1839.02V45.2793H1840.02H1841.02V360.886H1840.02ZM1840.02 45.2793L1841.02 45.3286C1832.61 215.759 1726.14 352.224 1593.09 361.382L1593.02 360.385L1592.95 359.387C1724.62 350.323 1830.64 215.068 1839.02 45.23L1840.02 45.2793ZM1593.02 360.385V361.385H0V360.385V359.385H1593.02V360.385ZM0 360.385H1V468.13H0H-1V360.385H0ZM0 468.13H1C1 605.649 112.481 717.13 250 717.13V718.13V719.13C111.377 719.13 -1 606.753 -1 468.13H0ZM250 718.13V717.13H1839.63V718.13V719.13H250V718.13ZM1839.63 718.13H1838.63V360.886H1839.63H1840.63V718.13H1839.63Z" fill="#424B54" mask="url(#path-1-inside-1_5_120)"/>
</svg>
