<svg width="1905" height="880" viewBox="0 0 1905 880" fill="none" xmlns="http://www.w3.org/2000/svg">
<mask id="path-1-inside-1_5_120" fill="white">
<path d="M1904.39 879.745L1904.31 879.621C1904.34 879.083 1904.36 878.545 1904.39 878.006V879.745ZM1904 437.812H1904.39V823.986C1895.58 615.705 1785.65 449.444 1648.73 438.312H0V0H1904V437.812Z"/>
</mask>
<path d="M1904.39 879.745L1904.31 879.621C1904.34 879.083 1904.36 878.545 1904.39 878.006V879.745ZM1904 437.812H1904.39V823.986C1895.58 615.705 1785.65 449.444 1648.73 438.312H0V0H1904V437.812Z" fill="#424B54"/>
<path d="M1904.39 879.745L1903.52 880.243L1905.39 883.492V879.745H1904.39ZM1904.31 879.621L1903.32 879.576L1903.3 879.867L1903.45 880.119L1904.31 879.621ZM1904.39 878.006H1905.39L1903.39 877.964L1904.39 878.006ZM1904 437.812H1903V438.812H1904V437.812ZM1904.39 437.812H1905.39V436.812H1904.39V437.812ZM1904.39 823.986L1903.39 824.029L1905.39 823.986H1904.39ZM1648.73 438.312L1648.81 437.316L1648.77 437.312H1648.73V438.312ZM0 438.312H-1V439.312H0V438.312ZM0 0V-1H-1V0H0ZM1904 0H1905V-1H1904V0ZM1904.39 879.745L1905.25 879.247L1905.18 879.123L1904.31 879.621L1903.45 880.119L1903.52 880.243L1904.39 879.745ZM1904.31 879.621L1905.31 879.666C1905.34 879.128 1905.36 878.588 1905.38 878.048L1904.39 878.006L1903.39 877.964C1903.36 878.501 1903.34 879.037 1903.32 879.576L1904.31 879.621ZM1904.39 878.006H1903.39V879.745H1904.39H1905.39V878.006H1904.39ZM1904 437.812V438.812H1904.39V437.812V436.812H1904V437.812ZM1904.39 437.812H1903.39V823.986H1904.39H1905.39V437.812H1904.39ZM1904.39 823.986L1905.38 823.944C1900.97 719.648 1871.25 625.83 1825.43 556.666C1779.63 487.509 1717.67 442.914 1648.81 437.316L1648.73 438.312L1648.65 439.309C1716.71 444.842 1778.18 488.944 1823.77 557.77C1869.35 626.59 1898.99 720.043 1903.39 824.029L1904.39 823.986ZM1648.73 438.312V437.312H0V438.312V439.312H1648.73V438.312ZM0 438.312H1V0H0H-1V438.312H0ZM0 0V1H1904V0V-1H0V0ZM1904 0H1903V437.812H1904H1905V0H1904Z" fill="#424B54" mask="url(#path-1-inside-1_5_120)"/>
</svg>
