<svg width="1905" height="776" viewBox="0 0 1905 776" fill="none" xmlns="http://www.w3.org/2000/svg">
<mask id="path-1-inside-1_5_120" fill="white">
<path d="M1904.39 775.785L1904.31 775.674C1904.34 775.189 1904.36 774.705 1904.39 774.22V775.785ZM1904 386.001H1904.39V726.586C1895.58 542.936 1785.66 396.334 1648.76 386.502H0V0H1904V386.001Z"/>
</mask>
<path d="M1904.39 775.785L1904.31 775.674C1904.34 775.189 1904.36 774.705 1904.39 774.22V775.785ZM1904 386.001H1904.39V726.586C1895.58 542.936 1785.66 396.334 1648.76 386.502H0V0H1904V386.001Z" fill="#424B54"/>
<path d="M1904.39 775.785L1903.55 776.33L1905.39 779.162V775.785H1904.39ZM1904.31 775.674L1903.31 775.623L1903.3 775.947L1903.47 776.218L1904.31 775.674ZM1904.39 774.22H1905.39L1903.39 774.172L1904.39 774.22ZM1904 386.001H1903V387.001H1904V386.001ZM1904.39 386.001H1905.39V385.001H1904.39V386.001ZM1904.39 726.586L1903.39 726.634L1905.39 726.586H1904.39ZM1648.76 386.502L1648.83 385.505L1648.79 385.502H1648.76V386.502ZM0 386.502H-1V387.502H0V386.502ZM0 0V-1H-1V0H0ZM1904 0H1905V-1H1904V0ZM1904.39 775.785L1905.22 775.241L1905.15 775.129L1904.31 775.674L1903.47 776.218L1903.55 776.33L1904.39 775.785ZM1904.31 775.674L1905.31 775.725C1905.34 775.24 1905.36 774.754 1905.38 774.268L1904.39 774.22L1903.39 774.172C1903.36 774.655 1903.34 775.139 1903.31 775.623L1904.31 775.674ZM1904.39 774.22H1903.39V775.785H1904.39H1905.39V774.22H1904.39ZM1904 386.001V387.001H1904.39V386.001V385.001H1904V386.001ZM1904.39 386.001H1903.39V726.586H1904.39H1905.39V386.001H1904.39ZM1904.39 726.586L1905.38 726.538C1896.57 542.629 1786.45 395.388 1648.83 385.505L1648.76 386.502L1648.69 387.499C1784.87 397.28 1894.59 543.243 1903.39 726.634L1904.39 726.586ZM1648.76 386.502V385.502H0V386.502V387.502H1648.76V386.502ZM0 386.502H1V0H0H-1V386.502H0ZM0 0V1H1904V0V-1H0V0ZM1904 0H1903V386.001H1904H1905V0H1904Z" fill="#424B54" mask="url(#path-1-inside-1_5_120)"/>
</svg>
